<mxfile host="app.diagrams.net" modified="2023-12-17T14:56:56.316Z" agent="Mozilla/5.0 (Windows NT 10.0; Win64; x64) AppleWebKit/537.36 (KHTML, like Gecko) Chrome/120.0.0.0 Safari/537.36 Edg/120.0.0.0" version="22.1.11" etag="pLgDE43sIfznvFnI5tPZ" type="github">
  <diagram name="Sayfa -1" id="wFVXFWcw18WruD_f7T4R">
    <mxGraphModel>
      <root>
        <mxCell id="0" />
        <mxCell id="1" parent="0" />
      </root>
    </mxGraphModel>
  </diagram>
</mxfile>
